<svg width="23" height="29" viewBox="0 0 23 29" fill="none" xmlns="http://www.w3.org/2000/svg">
<circle cx="11.2123" cy="11.5123" r="5.5" fill="white"/>
<path d="M11.2118 0.0117608C9.72242 -0.058091 8.23491 0.183795 6.84443 0.721934C5.45396 1.26007 4.19117 2.08261 3.13689 3.13689C2.08261 4.19117 1.26007 5.45396 0.721933 6.84443C0.183795 8.23491 -0.058091 9.72242 0.0117608 11.2118C0.0117608 14.7398 2.81176 18.2118 4.21176 19.6118C5.61176 21.0118 11.2118 28.0118 11.2118 28.0118C11.2118 28.0118 16.8118 21.0118 18.2118 19.6118C19.6118 18.2118 22.4118 14.7398 22.4118 11.2118C22.4816 9.72242 22.2397 8.23491 21.7016 6.84443C21.1634 5.45396 20.3409 4.19117 19.2866 3.13689C18.2324 2.08261 16.9696 1.26007 15.5791 0.721934C14.1886 0.183795 12.7011 -0.058091 11.2118 0.0117608ZM11.2118 15.7618C10.3119 15.7618 9.43216 15.4949 8.68392 14.9949C7.93567 14.495 7.35249 13.7844 7.00811 12.953C6.66373 12.1216 6.57362 11.2067 6.74919 10.3241C6.92475 9.44149 7.3581 8.63075 7.99442 7.99443C8.63075 7.3581 9.44148 6.92475 10.3241 6.74919C11.2067 6.57363 12.1216 6.66373 12.953 7.00811C13.7844 7.35249 14.495 7.93567 14.9949 8.68392C15.4949 9.43216 15.7618 10.3119 15.7618 11.2118C15.7618 11.8093 15.6441 12.4009 15.4154 12.953C15.1868 13.505 14.8516 14.0066 14.4291 14.4291C14.0066 14.8516 13.505 15.1868 12.953 15.4154C12.4009 15.6441 11.8093 15.7618 11.2118 15.7618Z" fill="#75B523"/>
</svg>
